<?xml version="1.0" standalone="no"?>
<!DOCTYPE svg PUBLIC "-//W3C//DTD SVG 20010904//EN"
 "http://www.w3.org/TR/2001/REC-SVG-20010904/DTD/svg10.dtd">
<svg version="1.0" xmlns="http://www.w3.org/2000/svg"
 width="1024.000000pt" height="1024.000000pt" viewBox="0 0 1024.000000 1024.000000"
 preserveAspectRatio="xMidYMid meet">

<g transform="translate(0.000000,1024.000000) scale(0.100000,-0.100000)"
fill="#000000" stroke="none">
<path d="M6354 7998 c-51 -34 -160 -140 -402 -389 -98 -101 -142 -141 -145
-130 -3 9 -5 4 -6 -11 0 -15 -6 -30 -12 -34 -8 -4 -9 1 -4 16 5 15 4 20 -4 16
-6 -4 -11 -14 -11 -22 0 -8 -4 -14 -10 -14 -5 0 -10 -13 -10 -29 0 -28 -25
-60 -37 -47 -4 3 2 13 13 22 15 12 15 14 3 11 -13 -4 -15 -1 -11 15 2 11 11
22 18 25 8 3 14 11 14 18 0 8 7 21 16 29 9 10 11 16 4 16 -7 0 -9 8 -4 23 7
22 6 22 -15 3 -11 -11 -19 -21 -17 -24 3 -2 -7 -15 -22 -28 -23 -20 -25 -25
-12 -35 13 -9 13 -10 -2 -5 -13 4 -29 -13 -62 -66 -25 -39 -46 -77 -46 -85 0
-7 -4 -13 -10 -13 -5 0 -10 7 -10 16 0 30 31 137 51 177 11 21 19 40 17 42 -5
5 -142 -114 -152 -133 -5 -9 -37 -46 -71 -82 -66 -69 -115 -140 -115 -165 0
-8 2 -15 5 -15 14 0 62 30 79 49 10 11 23 18 27 15 5 -3 9 0 9 5 0 6 4 11 9
11 6 0 -6 -35 -26 -77 -19 -43 -44 -103 -55 -133 -11 -30 -24 -59 -29 -64 -14
-15 -11 -26 9 -26 40 -1 -24 -24 -83 -29 -53 -5 -60 -9 -63 -28 -2 -13 -8 -23
-13 -23 -5 0 -9 -8 -9 -17 0 -15 2 -16 10 -3 7 11 10 7 10 -18 0 -20 -4 -31
-10 -27 -5 3 -10 1 -10 -4 0 -21 27 -11 40 14 7 14 15 23 17 21 2 -2 -9 -25
-24 -52 -30 -49 -53 -67 -53 -40 0 9 7 16 15 16 8 0 15 5 15 10 0 6 -8 10 -17
8 -13 -2 -19 8 -26 42 -9 51 -1 178 15 230 28 92 102 289 119 319 11 18 19 35
17 36 -11 11 -117 -45 -161 -84 l-52 -49 -44 39 c-64 57 -75 51 -41 -23 15
-35 31 -79 35 -98 5 -28 -5 -16 -54 63 -33 54 -60 103 -58 109 2 11 -43 41
-51 33 -2 -1 5 -20 16 -42 50 -98 113 -279 108 -308 -6 -31 4 -57 20 -56 5 1
10 -39 12 -89 2 -69 0 -90 -10 -88 -7 2 -15 12 -18 22 -8 30 -34 34 -27 5 6
-23 5 -23 -8 -5 -12 16 -17 17 -30 6 -19 -16 -20 -6 0 14 14 13 13 15 -5 13
-11 -1 -20 -5 -20 -9 0 -4 -7 -5 -15 -2 -12 5 -12 8 0 20 7 8 18 14 24 14 6 0
11 13 11 29 0 26 -4 30 -32 33 -31 3 -31 4 -14 21 10 10 16 21 12 24 -3 3 -15
-4 -26 -17 -18 -21 -22 -22 -34 -9 -14 14 -126 256 -126 271 0 5 14 -1 30 -14
22 -16 27 -24 18 -31 -10 -6 -9 -8 3 -4 8 3 26 -1 40 -9 31 -17 59 -18 59 0 0
19 -73 117 -80 106 -7 -11 -117 111 -130 144 -5 14 -14 27 -20 27 -5 1 -16 2
-22 3 -7 0 -13 7 -13 15 0 12 -85 94 -91 88 -2 -1 11 -31 28 -66 22 -46 32
-82 34 -130 2 -36 1 -59 -2 -51 -17 40 -78 130 -88 129 -7 0 -6 -3 2 -6 6 -2
12 -14 12 -26 0 -17 -2 -19 -9 -8 -5 8 -18 12 -30 8 -12 -3 -19 -1 -16 3 3 5
1 11 -4 14 -5 4 -11 -1 -13 -10 -2 -11 -26 12 -70 67 -96 120 -504 532 -562
568 -28 17 -63 31 -78 31 -98 0 -241 -290 -293 -595 -15 -90 -23 -121 -27
-101 -3 16 -4 45 -2 65 2 20 4 46 4 59 0 12 4 22 9 22 5 0 7 9 4 20 -3 10 5
35 16 54 12 19 21 41 20 48 -1 7 3 26 10 42 6 16 10 35 7 43 -3 7 -1 13 4 13
5 0 8 8 8 18 -1 9 2 29 5 45 16 60 -3 22 -32 -65 -70 -214 -105 -429 -105
-653 -1 -166 12 -267 45 -364 11 -30 17 -56 15 -59 -6 -6 -63 74 -94 133 l-27
50 -3 -80 c-6 -143 34 -273 102 -333 19 -16 33 -38 33 -48 -1 -10 -33 -39 -75
-67 -72 -48 -98 -79 -94 -107 2 -12 1 -12 -6 -2 -6 9 -16 3 -35 -26 -35 -49
-34 -54 6 -38 31 13 137 31 137 23 0 -2 -20 -18 -45 -36 -24 -17 -65 -58 -90
-91 -46 -60 -121 -197 -113 -206 3 -2 22 10 44 27 44 35 133 83 141 75 3 -2
-11 -19 -32 -37 -93 -82 -180 -227 -250 -417 -24 -67 -54 -140 -65 -162 -11
-22 -19 -40 -17 -40 3 0 33 13 68 29 35 16 75 32 88 36 23 7 22 5 -11 -36 -80
-99 -129 -203 -158 -338 -11 -47 -18 -87 -16 -88 1 -2 20 22 41 52 32 47 102
115 118 115 2 0 -7 -30 -20 -67 -62 -170 -86 -396 -64 -593 19 -162 17 -160
62 -72 37 75 127 198 136 188 3 -2 -4 -31 -15 -63 -80 -227 -88 -434 -26 -661
29 -109 69 -204 76 -182 3 8 12 52 21 97 8 45 26 106 40 135 l24 53 7 -40 c47
-259 190 -523 410 -753 43 -45 83 -82 88 -82 5 0 -2 19 -16 43 -26 45 -66 155
-66 183 0 10 36 -35 81 -99 167 -240 297 -375 530 -551 57 -44 126 -100 152
-125 l49 -46 -7 45 c-4 25 -13 61 -21 80 l-14 35 28 -34 c15 -19 67 -82 116
-140 48 -58 116 -148 150 -200 l61 -93 3 93 3 94 66 -125 c36 -69 96 -184 133
-257 l68 -131 17 46 c10 26 45 94 78 152 34 58 87 154 118 214 l57 110 -5
-102 c-3 -56 -3 -102 0 -102 3 0 20 26 37 58 42 78 305 410 317 398 2 -1 -3
-18 -11 -37 -7 -19 -16 -50 -20 -69 l-6 -35 42 41 c24 22 104 88 178 146 240
187 350 303 505 531 44 64 81 110 83 102 4 -17 -27 -105 -59 -166 -11 -23 -18
-43 -15 -46 7 -7 97 84 166 167 84 101 204 291 249 395 23 51 51 133 63 182
11 48 23 95 26 103 10 34 72 -163 72 -232 0 -51 13 -48 38 10 67 160 87 264
86 447 -1 144 -4 172 -31 278 -17 64 -27 117 -24 117 10 0 63 -58 90 -97 12
-17 32 -60 45 -94 l23 -62 6 39 c42 266 28 492 -43 700 l-28 84 29 -21 c27
-19 78 -78 117 -135 11 -16 12 -11 7 36 -12 108 -70 246 -146 347 -27 35 -49
66 -49 69 0 2 41 -16 90 -41 50 -25 90 -42 90 -39 0 3 -8 18 -19 32 -10 15
-38 81 -61 147 -70 199 -137 317 -247 436 l-58 62 51 -26 c27 -14 74 -44 102
-66 l52 -41 -17 42 c-33 84 -99 181 -166 244 -75 71 -71 77 33 50 30 -8 56
-13 57 -12 2 1 -14 26 -34 55 -20 29 -71 78 -112 109 -42 32 -77 62 -79 67 -2
6 -10 14 -18 18 -12 7 -8 16 22 49 72 80 107 195 102 335 l-3 78 -33 -60 c-29
-53 -84 -125 -96 -125 -2 0 7 32 20 70 39 117 47 187 41 383 -3 135 -11 218
-31 322 -26 141 -93 375 -107 375 -9 0 -3 -66 8 -83 3 -5 2 -7 -4 -4 -6 4 -18
28 -28 54 -48 128 -119 244 -168 274 -44 26 -66 24 -123 -13z m-2501 -358 c54
-17 77 -31 133 -86 38 -36 60 -62 49 -59 -11 4 -51 9 -90 11 -46 3 -62 1 -45
-5 118 -39 197 -109 283 -248 5 -8 -12 -5 -50 8 -32 11 -94 23 -138 26 l-80 6
94 -49 c52 -27 96 -53 98 -59 2 -5 -16 -22 -40 -38 -55 -36 -101 -77 -93 -84
3 -3 48 1 101 9 52 8 95 13 95 11 0 -11 -113 -105 -163 -135 l-61 -38 45 0 44
0 -37 -35 c-20 -19 -44 -35 -53 -35 -9 0 -39 24 -67 53 -40 41 -47 46 -35 22
8 -16 27 -45 40 -63 16 -21 24 -43 22 -60 -2 -15 1 -32 6 -39 6 -7 6 -13 0
-17 -13 -8 -66 55 -95 112 -25 50 -51 127 -60 178 l-5 31 77 -38 c42 -21 93
-41 112 -45 l35 -7 -50 38 c-90 68 -130 105 -157 147 -42 61 -35 68 31 35 42
-21 79 -31 128 -34 l68 -5 -43 26 c-48 28 -202 164 -202 177 0 5 28 9 63 9 64
0 137 15 137 28 0 4 -19 13 -42 19 -51 14 -116 67 -160 131 -25 36 -28 44 -12
38 22 -9 137 -27 141 -22 3 3 -52 51 -106 93 -14 11 -14 12 0 13 9 0 46 -9 82
-20z m2449 -28 c-29 -26 -52 -50 -52 -55 0 -8 62 -1 118 13 l32 8 -32 -45
c-46 -64 -90 -99 -148 -120 -27 -10 -50 -21 -50 -24 0 -12 87 -29 144 -29 31
0 56 -4 56 -9 0 -14 -152 -148 -201 -177 l-44 -26 66 5 c46 3 86 14 125 33 33
15 63 30 68 32 5 3 -4 -19 -20 -49 -21 -39 -52 -71 -117 -122 -48 -38 -86 -72
-83 -74 7 -7 119 36 159 63 21 14 41 23 44 21 9 -9 -27 -132 -57 -192 -16 -33
-43 -76 -60 -95 -17 -19 -29 -30 -26 -25 2 6 1 17 -4 24 -10 17 6 65 37 111
36 54 27 57 -27 6 -27 -25 -53 -46 -58 -46 -5 0 -25 14 -43 31 -23 21 -30 32
-21 36 10 4 9 8 -5 19 -16 12 -15 13 15 14 39 0 35 15 -6 23 -28 6 -177 115
-169 124 3 2 40 0 82 -6 42 -6 91 -11 108 -11 l31 0 -24 17 c-14 9 -49 34 -78
56 -43 33 -50 42 -40 54 14 17 88 56 141 73 21 6 36 14 33 17 -16 17 -177 -5
-249 -33 -28 -10 67 120 116 160 44 35 105 69 166 91 l36 14 -46 0 c-25 1 -67
-5 -92 -13 -26 -8 -47 -10 -47 -6 0 5 28 33 61 64 41 36 80 62 118 75 94 33
103 27 43 -27z m-2804 -512 l9 -35 7 42 c7 40 26 70 26 41 0 -7 12 5 27 27 33
49 38 36 17 -41 -15 -56 -32 -274 -21 -274 3 0 12 33 21 73 9 39 27 95 40 122
l23 50 8 -60 c4 -33 18 -97 31 -143 25 -85 31 -152 14 -152 -12 0 -29 62 -37
137 -3 34 -9 60 -14 58 -4 -3 -15 -40 -25 -82 -16 -74 -16 -163 1 -298 l6 -40
-30 34 c-99 112 -181 382 -181 590 0 90 20 244 42 328 12 45 13 37 20 -147 4
-107 11 -211 16 -230z m3182 314 c40 -187 36 -352 -16 -546 -26 -99 -97 -254
-138 -303 l-25 -30 -1 26 c0 14 5 63 11 107 9 68 8 100 -6 190 -22 137 -31
152 -39 71 -9 -79 -33 -169 -46 -169 -11 0 -13 13 -3 23 3 4 8 24 10 45 2 20
11 62 19 92 8 30 18 84 22 120 l8 65 23 -43 c12 -24 30 -76 40 -114 16 -61 19
-66 24 -41 7 35 -7 147 -28 226 -21 81 -19 87 16 48 24 -26 33 -31 40 -20 6
10 8 9 7 -6 -1 -11 2 -33 7 -50 7 -28 9 -25 21 35 7 36 16 134 20 218 4 84 9
151 11 149 2 -2 12 -44 23 -93z m-984 -22 c0 -10 -6 -19 -13 -19 -14 0 -18 19
-6 30 11 12 19 8 19 -11z m-462 -109 c-10 -16 -40 -64 -66 -108 -45 -74 -48
-77 -44 -43 7 52 31 94 79 139 50 46 55 48 31 12z m-749 -3 c3 -5 1 -10 -4
-10 -6 0 -11 5 -11 10 0 6 2 10 4 10 3 0 8 -4 11 -10z m315 -406 c0 -8 -8 -10
-22 -6 -13 3 -19 1 -15 -6 4 -5 1 -12 -5 -15 -10 -3 -10 -7 1 -20 19 -24 8
-21 -20 6 -39 35 -87 119 -59 102 6 -3 10 -1 10 4 0 6 -5 11 -11 11 -5 0 -7 5
-4 10 8 13 125 -68 125 -86z m625 66 c-17 -19 -14 -25 10 -20 6 1 7 -2 2 -6
-4 -4 -17 -9 -28 -11 -17 -3 -18 0 -9 20 11 22 11 22 -9 -2 -12 -13 -21 -20
-21 -16 0 4 -7 2 -15 -5 -9 -7 -17 -11 -20 -9 -2 2 19 21 47 42 53 39 75 42
43 7z m-27 -63 c9 -10 6 -13 -12 -13 -16 0 -22 5 -19 13 3 7 9 13 13 13 4 0
12 -6 18 -13z m-598 -47 c0 -5 -2 -10 -4 -10 -3 0 -8 5 -11 10 -3 6 -1 10 4
10 6 0 11 -4 11 -10z m-3 -36 c-3 -3 -12 -4 -19 -1 -8 3 -5 6 6 6 11 1 17 -2
13 -5z m29 -12 c-3 -5 6 -18 19 -30 16 -14 27 -17 31 -10 4 6 14 -5 23 -24 9
-19 22 -43 30 -52 12 -14 11 -19 -4 -36 -19 -21 -7 -28 13 -8 8 8 12 9 12 1 0
-6 3 -18 6 -26 4 -12 0 -14 -17 -10 -19 5 -21 3 -16 -17 5 -20 0 -17 -34 16
-21 21 -39 44 -39 50 0 7 -5 16 -12 20 -7 4 -8 3 -4 -5 4 -6 -23 11 -60 39
-37 27 -71 50 -76 50 -5 0 -6 5 -3 10 3 6 11 10 16 10 6 0 7 -5 4 -10 -4 -7 3
-9 20 -6 20 4 25 2 21 -9 -3 -8 -1 -17 4 -20 6 -4 10 -1 10 4 0 15 25 14 39
-2 8 -10 7 -17 -2 -27 -10 -12 -9 -12 6 -1 13 11 20 11 32 1 8 -7 12 -17 8
-24 -3 -6 -3 -8 2 -4 4 4 15 2 23 -4 12 -10 12 -7 -1 23 -16 39 -61 89 -80 89
-7 0 -6 4 3 10 19 12 33 13 26 2z m659 -8 c-11 -8 -25 -12 -33 -9 -7 2 -10 0
-7 -5 3 -6 3 -10 -2 -11 -4 0 -19 -2 -33 -5 -23 -3 -24 -3 -5 8 11 6 22 14 25
18 7 10 32 18 55 19 20 0 20 0 0 -15z m-800 -3 c10 -17 -9 -20 -30 -5 -18 14
-18 14 2 14 12 0 24 -4 28 -9z m180 -1 c3 -5 2 -10 -4 -10 -5 0 -13 5 -16 10
-3 6 -2 10 4 10 5 0 13 -4 16 -10z m86 -45 c5 4 9 1 9 -4 0 -6 -4 -11 -8 -11
-12 0 -32 22 -32 35 0 5 5 2 11 -8 6 -9 14 -15 20 -12z m412 4 c-4 -16 -8 -17
-14 -7 -7 10 -9 8 -10 -7 0 -13 -2 -15 -6 -6 -3 8 2 20 13 28 23 17 23 17 17
-8z m-127 -31 c-21 -29 -20 -37 2 -33 9 2 20 4 23 4 4 1 19 13 34 29 24 23 26
24 16 5 -11 -21 -8 -27 12 -24 13 2 8 -3 -75 -84 -45 -44 -77 -73 -71 -65 6 8
9 30 7 47 -4 35 39 143 57 143 6 0 3 -10 -5 -22z m-621 -34 l30 -14 -30 5
c-16 3 -25 2 -20 -2 6 -4 16 -19 23 -32 10 -18 1 -13 -37 19 -28 24 -51 45
-51 47 0 6 53 -9 85 -23z m949 -9 c-41 -36 -59 -44 -51 -22 2 6 10 11 16 9 7
-1 10 1 7 6 -3 5 -20 7 -38 4 -18 -2 -30 -2 -27 2 10 10 83 35 108 35 23 1 22
-1 -15 -34z m-786 -83 c35 -42 38 -47 52 -73 9 -17 1 -12 -24 15 -20 21 -36
42 -36 47 0 5 -9 9 -20 9 -18 0 -16 -5 15 -35 19 -20 35 -40 35 -45 0 -5 7
-16 16 -25 13 -12 14 -19 5 -28 -6 -6 -11 -7 -11 -1 0 5 -11 22 -25 38 -14 16
-25 25 -25 20 0 -6 5 -15 12 -22 9 -9 8 -12 -4 -12 -9 0 -18 4 -20 9 -1 5 -27
35 -56 65 -34 35 -48 56 -38 56 9 0 16 -4 16 -10 0 -18 20 -11 21 8 0 10 3 12
6 5 7 -18 20 -16 27 3 3 8 2 13 -2 10 -5 -3 -21 6 -38 20 l-29 25 50 -26 c28
-14 60 -38 73 -53z m676 70 c3 -5 -1 -9 -9 -9 -8 0 -12 4 -9 9 3 4 7 8 9 8 2
0 6 -4 9 -8z m-76 -54 c-2 -6 6 -14 17 -16 11 -2 24 -11 28 -18 5 -8 13 -11
19 -8 7 4 8 2 4 -5 -6 -9 -11 -9 -21 -1 -10 8 -15 8 -21 -1 -4 -8 -3 -9 4 -5
7 4 12 1 12 -8 0 -22 -38 -58 -52 -50 -6 4 -8 3 -5 -3 4 -6 0 -16 -7 -22 -11
-10 -15 -8 -18 5 -3 16 -4 17 -20 1 -9 -9 -21 -17 -26 -17 -6 0 -13 -6 -15
-12 -3 -7 -6 -4 -6 7 -1 27 32 88 71 131 34 37 39 40 36 22z m419 -34 c-3 -3
-12 -4 -19 -1 -8 3 -5 6 6 6 11 1 17 -2 13 -5z m-1416 -21 c13 -15 12 -15 -8
-4 -24 12 -29 21 -14 21 5 0 15 -7 22 -17z m59 -8 c8 -9 9 -15 2 -15 -6 0 -14
5 -17 10 -4 6 -11 7 -17 4 -7 -4 -8 -2 -4 4 10 16 21 15 36 -3z m360 -85 c0
-5 -7 -7 -15 -4 -8 4 -12 10 -9 15 6 11 24 2 24 -11z m-65 -50 c10 -11 16 -20
13 -20 -3 0 -13 9 -23 20 -10 11 -16 20 -13 20 3 0 13 -9 23 -20z m525 -90
c-6 -11 -16 -18 -22 -14 -7 4 -6 9 3 15 8 5 10 9 5 9 -5 0 -2 7 5 16 17 21 24
2 9 -26z m-363 -122 c-3 -8 -6 -5 -6 6 -1 11 2 17 5 13 3 -3 4 -12 1 -19z
m784 -45 c-53 -47 -111 -125 -111 -150 0 -8 23 2 58 24 163 104 258 99 521
-31 63 -31 121 -56 129 -56 28 0 0 -16 -78 -45 -63 -23 -98 -29 -220 -36 -161
-8 -226 -24 -289 -69 -56 -41 -91 -99 -148 -247 -27 -67 -52 -123 -56 -123 -4
0 -3 9 3 20 6 11 7 20 3 20 -14 -1 -44 -50 -38 -60 3 -6 2 -10 -3 -10 -4 0
-14 -24 -21 -52 -7 -29 -18 -69 -24 -88 -10 -34 -11 -34 -18 -10 -11 40 -10
224 2 280 11 50 10 51 -24 89 -19 21 -42 59 -52 84 -24 63 -17 180 16 260 l24
57 10 -67 11 -68 12 55 c22 94 88 177 179 224 28 14 127 43 158 45 5 1 -15
-20 -44 -46z m-1104 -9 c111 -54 190 -157 194 -253 l1 -26 8 25 c4 14 9 48 9
75 l2 50 20 -37 c31 -61 52 -156 46 -219 -5 -63 -23 -102 -68 -154 -30 -34
-30 -36 -20 -85 12 -57 13 -202 2 -270 l-7 -45 -13 45 c-19 70 -52 158 -48
128 11 -75 -26 -2 -105 203 -77 202 -172 269 -382 269 -105 0 -183 14 -279 50
-52 20 -75 40 -44 40 6 0 71 29 142 65 150 75 234 100 310 90 57 -7 133 -39
200 -85 l45 -31 -11 28 c-19 50 -50 92 -102 139 l-52 46 40 -6 c22 -4 72 -22
112 -42z m620 -86 c-3 -8 -6 -5 -6 6 -1 11 2 17 5 13 3 -3 4 -12 1 -19z m-55
-317 c11 -19 10 -25 -5 -35 -15 -12 -15 -15 -1 -32 9 -10 13 -13 9 -7 -3 7 -2
20 3 30 8 14 13 9 32 -28 12 -24 38 -65 56 -91 l34 -46 -43 -27 c-48 -31 -65
-55 -118 -165 l-35 -75 -37 77 c-22 46 -60 102 -93 137 l-55 60 29 43 c16 24
42 67 58 95 29 53 44 66 44 38 0 -8 -4 -15 -10 -15 -5 0 -10 -8 -10 -17 0 -15
2 -14 19 3 16 16 17 22 6 40 -11 17 -10 30 8 82 14 44 23 60 31 52 15 -15 26
-12 27 8 0 9 9 -10 19 -43 11 -33 25 -71 32 -84z m-806 19 c23 -9 26 -15 20
-40 -12 -61 58 -89 83 -33 11 25 12 25 32 7 34 -30 41 -51 28 -76 -19 -37 -41
-47 -93 -48 -62 0 -110 30 -131 83 -18 44 -18 57 -5 91 10 28 24 31 66 16z
m1549 -57 c0 -57 -3 -66 -32 -95 -26 -26 -41 -32 -85 -35 -63 -5 -99 11 -112
50 -9 23 -6 31 16 53 l25 26 26 -26 c14 -14 30 -26 36 -26 21 0 41 33 41 70 0
41 11 50 60 47 24 -2 25 -5 25 -64z m354 37 l40 -20 -20 -72 c-32 -119 -79
-205 -163 -300 -114 -129 -201 -163 -331 -130 -37 10 -38 10 -20 -4 83 -63
192 -100 268 -90 69 8 177 61 271 135 43 33 84 61 91 61 9 0 4 -17 -13 -49
-15 -27 -24 -52 -21 -55 3 -3 21 -1 40 4 87 25 191 -1 303 -75 27 -19 51 -33
52 -32 10 9 -26 110 -76 217 l-60 125 48 -51 c89 -94 153 -251 188 -459 18
-106 29 -379 15 -371 -5 3 -7 14 -4 24 6 25 -30 155 -66 234 -35 79 -109 194
-147 228 -15 14 -24 18 -21 10 3 -8 20 -51 38 -95 27 -67 33 -97 37 -184 4
-98 4 -103 -14 -97 -44 13 -149 25 -157 17 -4 -4 10 -13 32 -20 57 -17 59 -29
3 -20 -70 12 -70 12 -64 -17 3 -19 29 -42 101 -89 53 -35 114 -82 136 -104 22
-21 43 -35 46 -29 3 5 12 -12 18 -39 7 -26 14 -56 17 -66 5 -17 3 -17 -17 -6
-74 39 -272 52 -399 25 -125 -27 -263 -90 -412 -190 -43 -29 -33 -2 20 51 135
138 331 217 534 218 60 0 108 1 108 3 0 2 -20 12 -45 23 -63 28 -232 28 -335
-1 -71 -20 -205 -85 -243 -118 -29 -26 -30 -7 -1 65 44 113 111 236 159 292
25 29 45 55 45 57 0 3 -31 -11 -70 -31 -49 -26 -92 -61 -147 -119 -133 -138
-193 -243 -243 -426 -77 -280 -198 -435 -324 -414 -58 9 -176 72 -176 92 0 4
16 16 35 26 53 29 113 99 147 172 28 61 30 71 26 157 -3 62 -10 103 -22 126
-13 25 -20 73 -27 190 -5 86 -12 203 -15 261 -7 115 6 204 52 358 32 106 115
269 159 312 30 29 42 33 112 40 43 5 92 13 108 20 48 18 93 68 152 169 l56 94
78 -6 c49 -4 94 -14 118 -27z m-2101 -10 c116 -206 145 -228 317 -246 76 -8
103 -35 172 -171 65 -127 89 -199 113 -338 18 -107 19 -123 5 -277 -8 -90 -15
-197 -15 -239 0 -57 -6 -89 -22 -125 -18 -40 -22 -68 -23 -145 0 -90 2 -100
35 -164 33 -65 80 -114 160 -166 l24 -16 -54 -31 c-29 -17 -83 -39 -118 -48
l-65 -18 -53 28 c-92 48 -160 162 -219 367 -57 198 -126 322 -248 448 -62 64
-202 161 -232 161 -3 0 15 -24 39 -54 54 -66 128 -200 167 -302 34 -88 35 -92
12 -72 -89 79 -307 153 -438 148 -66 -3 -72 0 -36 19 33 18 55 56 25 44 -10
-4 -12 0 -8 11 3 9 2 16 -3 16 -15 0 -113 -91 -107 -101 3 -5 -1 -9 -8 -9 -7
0 -26 -11 -43 -25 l-30 -25 30 7 c17 5 77 8 135 7 124 -1 212 -24 331 -85 76
-40 189 -132 210 -171 13 -23 18 -26 -81 38 -178 114 -330 163 -505 164 -94 0
-192 -20 -234 -47 -23 -15 -24 -15 -17 13 17 67 104 160 229 244 58 39 83 62
85 79 4 22 2 23 -50 17 l-53 -7 45 25 45 25 -55 0 c-30 0 -79 -8 -107 -18 -34
-11 -53 -14 -53 -7 2 81 50 266 91 348 28 55 24 54 -24 -4 -87 -108 -139 -208
-182 -348 -27 -86 -29 -72 -14 95 25 286 99 515 205 631 53 57 53 56 -5 -60
-40 -80 -94 -226 -86 -234 1 -2 31 15 64 37 34 22 85 47 112 56 48 16 162 22
200 10 18 -6 18 -5 2 39 -10 25 -14 48 -11 51 4 4 41 -21 83 -55 136 -107 241
-147 340 -129 55 10 195 74 195 90 0 12 -17 11 -42 -2 -62 -33 -201 5 -263 72
-17 18 -23 29 -15 25 8 -4 -1 8 -22 26 -80 73 -146 194 -173 320 -11 50 -10
59 4 71 28 24 73 35 149 36 71 1 73 0 90 -29z m740 -269 c41 -22 113 -94 135
-138 8 -15 23 -54 32 -85 9 -32 20 -60 25 -63 4 -3 20 27 34 66 31 85 72 146
124 187 74 59 124 69 83 16 -26 -33 -26 -51 -2 -172 28 -135 54 -475 48 -599
-4 -76 -11 -112 -28 -145 -12 -24 -23 -45 -25 -47 -2 -3 -100 -5 -218 -6 -240
-1 -245 0 -270 72 -24 70 -27 165 -11 378 18 251 20 266 47 376 l21 86 -26 47
c-28 51 -24 55 31 27z m1816 -507 c3 -8 2 -12 -4 -9 -6 3 -10 10 -10 16 0 14
7 11 14 -7z m-1401 -669 c9 -4 17 -14 17 -22 0 -12 -20 -13 -132 -7 -83 4
-174 2 -242 -5 -59 -7 -110 -10 -113 -8 -2 3 1 14 8 26 11 16 26 21 74 24 85
6 367 0 388 -8z m-319 -316 c-9 -10 -29 -19 -43 -19 l-26 0 31 19 c18 11 35
25 40 32 6 10 9 10 12 0 2 -6 -4 -21 -14 -32z m246 -11 c0 -5 -3 -8 -7 -8 -11
0 -40 20 -29 20 5 0 2 8 -5 17 -11 13 -8 13 13 -2 15 -11 28 -23 28 -27z m994
-56 c5 -62 2 -95 -14 -156 -40 -157 -152 -348 -275 -466 -43 -42 -46 -43 -33
-15 7 17 27 50 44 75 74 105 110 311 80 459 -9 46 -15 85 -13 87 9 9 77 -124
83 -163 3 -24 10 -45 14 -48 7 -4 45 123 81 267 6 26 15 46 19 43 4 -2 10 -40
14 -83z m-2222 56 c6 -29 76 -268 84 -288 4 -9 12 9 20 42 7 32 25 80 39 107
28 56 53 79 41 40 -20 -72 -28 -145 -24 -239 3 -86 10 -121 36 -194 34 -95 58
-140 71 -132 4 3 13 -11 19 -31 l11 -36 -50 49 c-135 132 -236 321 -270 507
-16 92 6 258 23 175z m1906 -328 c9 -210 -86 -410 -323 -685 -43 -49 -96 -113
-118 -142 -23 -29 -42 -51 -44 -49 -2 1 11 42 27 91 37 109 37 118 3 73 -16
-19 -52 -63 -81 -97 -128 -151 -216 -312 -279 -511 -3 -8 -17 21 -32 65 -51
150 -159 331 -275 463 -31 35 -61 72 -67 83 -25 47 -19 4 11 -81 18 -50 31
-92 28 -95 -2 -3 -21 18 -42 45 -21 27 -78 96 -128 152 -143 163 -212 277
-258 423 -29 95 -40 298 -17 340 l15 30 12 -43 c50 -189 220 -516 309 -596 26
-24 26 -16 2 32 -10 20 -24 61 -30 90 -13 60 -15 226 -3 218 17 -10 81 -155
96 -220 18 -75 49 -140 103 -223 35 -52 53 -71 34 -35 -5 9 -11 35 -14 57 -3
22 -13 60 -21 84 -21 58 -20 68 5 45 99 -90 206 -280 248 -444 l17 -65 28 90
c46 148 104 256 229 425 83 113 76 104 82 99 10 -11 -51 -209 -79 -254 -15
-23 -27 -55 -22 -55 8 0 174 255 199 305 14 28 51 103 82 167 32 66 62 115 67
112 13 -8 3 -129 -17 -203 -8 -30 -25 -77 -39 -105 -14 -28 -23 -52 -21 -54 2
-2 29 32 59 75 74 102 157 270 198 399 22 68 36 100 43 93 6 -6 12 -50 13 -99z
m-1176 50 c2 -5 31 -20 65 -34 45 -17 60 -20 56 -10 -7 18 15 18 58 0 19 -8
71 -20 116 -26 69 -10 94 -10 162 4 44 9 104 27 132 41 60 27 73 25 38 -5
l-24 -21 32 17 c18 10 29 23 26 31 -3 7 0 13 6 13 6 0 11 -5 11 -12 0 -9 3 -9
12 0 7 7 21 12 32 12 17 0 13 -8 -23 -44 -168 -171 -479 -183 -657 -26 -43 38
-69 70 -56 70 6 0 12 -4 14 -10z"/>
<path d="M4699 6903 c18 -34 39 -58 45 -52 3 3 -3 16 -14 29 -11 13 -20 27
-20 32 0 4 -5 8 -10 8 -7 0 -7 -6 -1 -17z"/>
<path d="M4775 6711 c-3 -5 -1 -12 5 -16 5 -3 10 1 10 9 0 18 -6 21 -15 7z"/>
<path d="M4876 6706 c3 -9 11 -16 16 -16 13 0 5 23 -10 28 -7 2 -10 -2 -6 -12z"/>
<path d="M4897 6662 c2 -10 10 -19 18 -19 10 0 11 4 2 19 -7 10 -15 18 -18 18
-4 0 -5 -8 -2 -18z"/>
<path d="M4891 6614 c0 -11 3 -14 6 -6 3 7 2 16 -1 19 -3 4 -6 -2 -5 -13z"/>
<path d="M5271 6657 c-13 -21 -12 -21 5 -5 10 10 16 20 13 22 -3 3 -11 -5 -18
-17z"/>
<path d="M5226 6628 c3 -5 10 -6 15 -3 13 9 11 12 -6 12 -8 0 -12 -4 -9 -9z"/>
<path d="M5364 6572 c4 -7 2 -12 -3 -12 -6 0 -11 -7 -11 -15 0 -8 4 -15 9 -15
13 0 21 39 9 47 -7 3 -8 1 -4 -5z"/>
<path d="M5364 6508 c-4 -7 -4 -10 1 -6 4 4 15 2 24 -5 14 -11 14 -10 2 6 -16
20 -18 21 -27 5z"/>
<path d="M5316 6495 c-3 -9 -10 -14 -14 -11 -5 3 -9 -1 -9 -8 0 -8 6 -12 13
-9 13 5 27 33 20 40 -2 2 -6 -3 -10 -12z"/>
<path d="M6370 4590 c0 -5 5 -10 10 -10 6 0 10 5 10 10 0 6 -4 10 -10 10 -5 0
-10 -4 -10 -10z"/>
<path d="M6422 4596 c5 -5 3 -14 -2 -21 -7 -8 -3 -11 13 -11 16 1 22 -5 22
-21 0 -13 6 -28 13 -35 10 -10 12 -6 10 15 -1 16 -15 39 -33 55 -16 15 -27 23
-23 18z"/>
<path d="M6396 4538 c7 -11 32 -10 39 2 3 6 -4 9 -19 8 -13 -1 -22 -6 -20 -10z"/>
<path d="M6490 4520 c0 -6 7 -13 15 -16 8 -4 15 -11 15 -16 0 -6 -6 -5 -15 2
-8 6 -19 8 -26 4 -17 -10 17 -27 40 -19 11 3 22 1 26 -5 3 -5 14 -10 23 -10
12 1 4 12 -23 35 -42 36 -55 42 -55 25z"/>
<path d="M5653 4135 c0 -8 4 -12 9 -9 4 3 8 9 8 15 0 5 -4 9 -8 9 -5 0 -9 -7
-9 -15z"/>
<path d="M5567 4083 c-10 -9 -9 -23 1 -23 5 0 9 7 9 15 0 17 -1 18 -10 8z"/>
<path d="M5517 3863 c-12 -11 -8 -23 7 -23 7 0 19 7 26 15 10 12 9 15 -7 15
-11 0 -23 -3 -26 -7z"/>
<path d="M3870 4655 c0 -5 5 -17 10 -25 5 -8 10 -10 10 -5 0 6 -5 17 -10 25
-5 8 -10 11 -10 5z"/>
<path d="M3850 4615 c0 -23 3 -27 10 -15 8 12 10 12 10 1 0 -8 3 -12 6 -8 3 3
-1 16 -10 29 l-16 22 0 -29z"/>
<path d="M3734 4561 c3 -5 -1 -11 -9 -15 -8 -3 -15 -13 -15 -22 0 -14 4 -13
20 6 17 20 19 40 4 40 -3 0 -3 -4 0 -9z"/>
<path d="M3913 4508 c2 -15 6 -30 10 -34 10 -10 8 17 -3 41 -8 17 -9 16 -7 -7z"/>
<path d="M4502 4001 c2 -7 7 -12 11 -12 12 1 9 15 -3 20 -7 2 -11 -2 -8 -8z"/>
<path d="M4600 3938 c0 -4 7 -8 15 -8 8 0 15 4 15 8 0 5 -7 9 -15 9 -8 0 -15
-4 -15 -9z"/>
<path d="M4590 3861 c0 -14 18 -23 31 -15 8 4 7 9 -2 15 -18 11 -29 11 -29 0z"/>
<path d="M5780 7520 c0 -5 4 -10 9 -10 6 0 13 5 16 10 3 6 -1 10 -9 10 -9 0
-16 -4 -16 -10z"/>
<path d="M4384 7468 c-4 -7 -4 -10 1 -6 4 4 16 -3 27 -15 l19 -22 -17 28 c-19
31 -20 32 -30 15z"/>
<path d="M4360 7461 c0 -10 19 -25 25 -20 1 2 -3 10 -11 17 -8 7 -14 8 -14 3z"/>
<path d="M4375 7390 c-3 -5 1 -10 10 -10 9 0 13 5 10 10 -3 6 -8 10 -10 10 -2
0 -7 -4 -10 -10z"/>
<path d="M4933 7002 c0 -26 3 -40 5 -32 3 8 9 18 14 21 5 3 2 17 -5 32 -13 25
-14 25 -14 -21z"/>
<path d="M4900 6970 c0 -5 5 -10 11 -10 5 0 7 5 4 10 -3 6 -8 10 -11 10 -2 0
-4 -4 -4 -10z"/>
</g>
</svg>
